<svg width="120" height="114" viewBox="0 0 120 114" xmlns="http://www.w3.org/2000/svg">
  <g fill="none">
    <path d="M21.83 56.917l27.71-27.632V.115H8.796A8.571 8.571 0 0 0 .225 8.687v96.471a8.571 8.571 0 0 0 8.571 8.571h40.147a.605.605 0 0 0 .597-.605v-28.64L21.83 56.918z" fill="#EB2779"/>
    <path d="M98.853 56.748l2.946 2.973 10.822 10.9a25.045 25.045 0 0 1 0 35.421l-.306.305a24.86 24.86 0 0 1-35.159 0l-49.695-49.43L76.899 7.631c9.5-9.66 24.986-9.934 34.822-.616a24.854 24.854 0 0 1 .958 35.148L98.853 56.748" fill="#4CF0AE"/>
  </g>
</svg>
